<?xml version="1.0" standalone="no"?><!DOCTYPE svg PUBLIC "-//W3C//DTD SVG 1.1//EN" "http://www.w3.org/Graphics/SVG/1.1/DTD/svg11.dtd"><svg t="1551877417620" class="icon" style="" viewBox="0 0 1024 1024" version="1.1" xmlns="http://www.w3.org/2000/svg" p-id="2867" xmlns:xlink="http://www.w3.org/1999/xlink" width="30" height="30"><defs><style type="text/css"></style></defs><path d="M212 562h675c6.8 0 12.7 2.5 17.6 7.4s7.4 10.9 7.4 17.6v175H812V662H212v100H112V287c0-6.8 2.5-12.7 7.4-17.6 5-5 10.8-7.4 17.6-7.4h50c6.8 0 12.7 2.5 17.6 7.4 5 5 7.4 10.9 7.4 17.6v275z m195.7-54.3c19.5-19.5 29.3-43.1 29.3-70.8s-9.7-51.1-29.3-70.8c-19.6-19.6-43.1-29.3-70.8-29.3s-51.1 9.7-70.8 29.3c-19.6 19.6-29.3 43.1-29.3 70.8s9.7 51.1 29.3 70.8c19.5 19.5 43.1 29.3 70.8 29.3s51.3-9.7 70.8-29.3zM912 537v-25c0-41.4-14.6-76.8-44-106-29.3-29.3-64.6-44-106-44H487c-6.8 0-12.7 2.5-17.6 7.4-5 5-7.4 10.9-7.4 17.6v150h450z" p-id="2868" fill="#00a680"></path></svg>