<?xml version="1.0" standalone="no"?><!DOCTYPE svg PUBLIC "-//W3C//DTD SVG 1.1//EN" "http://www.w3.org/Graphics/SVG/1.1/DTD/svg11.dtd"><svg t="1551694264285" class="icon" style="" viewBox="0 0 1024 1024" version="1.1" xmlns="http://www.w3.org/2000/svg" p-id="1772" xmlns:xlink="http://www.w3.org/1999/xlink" width="28" height="28"><defs><style type="text/css"></style></defs><path d="M918.7 384.2c-12.4 0-22.5 10.3-22.5 23.1v332.1c0 17.3-4.7 33.7-12.9 45-2.5 3.5-9.1 11.5-16.6 11.5h-410c-7.8 0-15.5 2.1-22.2 6.1l-150.1 88c-6 3.5-13.7 0.4-15.8-6.4l-14.5-47.4c-7.4-24-28.9-40.3-53.3-40.3h-62.1c-7.4 0-14.1-8-16.6-11.5-8.2-11.3-12.9-27.7-12.9-45V293.3c0-17.3 4.7-33.7 12.9-45 2.5-3.5 9.1-11.5 16.6-11.5h361.6c12.4 0 22.5-10.3 22.5-23.1v-0.3c0-12.8-10.1-23.1-22.5-23.1H138.7c-41.1 0-74.4 46.1-74.4 103v446.2c0 56.9 33.3 103 74.4 103h62.1c4.8 0 9 3.2 10.4 7.9l31.3 102.1c2.1 6.8 9.8 9.9 15.8 6.4l190.8-111.8c5-3 10.8-4.5 16.6-4.5h401.1c41.1 0 74.5-46.1 74.5-103V407.3c-0.1-12.7-10.2-23.1-22.6-23.1z" p-id="1773" fill="#00a680"></path><path d="M938.6 189.1L838.2 85.9l-0.1-0.1c-13-13.3-30-20.9-48-21.4-7.6-0.2-15 0.9-22 3.2-9.4 3.1-18 8.5-25.1 15.8L726 101 537 294.9l-70.7 72.6-45.8 47c-4.7 4.8-8.4 10.5-11.1 16.8l-12.9 26-36.1 72.6-44.6 89.7-27 54.4c-0.5 1-0.9 1.9-1.2 2.8-1.9 5-3.1 10.2-3.6 15.4-1.6 17 4.5 34.2 17.2 47.4 16.7 17.1 40.1 22.5 61.1 14.1 0.9-0.4 1.8-0.8 2.7-1.3l115.5-60.2L601.9 629c5.1-2.2 9.7-5.2 13.8-8.9 0.9-0.8 1.8-1.6 2.6-2.5L726 507.1l42.3-43.4 172.6-177.1c25.5-26.2 24.4-69.9-2.3-97.5zM584 589.6s-0.1 0-0.1 0.1c-0.7 0.3-1.3 0.6-1.9 0.9l-55.7 29L387 692.2l-41.5 21.7c-0.1 0-0.2 0.1-0.3 0.1-7.6 2.7-13.1-1.7-15.1-3.8-2-2.1-6.4-7.7-3.7-15.5 0-0.1 0.1-0.2 0.1-0.3l1.1-2.1 36.1-72.6 44.6-89.7 36.1-72.6 2.7-5.5c0.3-0.6 0.6-1.3 0.9-1.9 0.5-1.3 2.2-1.7 3.2-0.6l7.9 8.1 70.7 72.6 55 56.4c0.8 0.8 0.5 2.5-0.8 3.1z m258.1-263.5l-73.9 75.8-42.2 43.4-107.9 110.6c-0.8 0.8-2.1 0.8-2.9 0l-25.4-26.1-70.7-72.6-38.6-39.6c-0.8-0.8-0.8-2.1 0-2.9l46-47.2 70.7-72.6 107.2-110c0.8-0.8 2.1-0.8 2.9 0L726 204l42.3 43.4 73.9 75.8c0.7 0.8 0.7 2.1-0.1 2.9z m68.6-70.4l-35.6 36.6c-0.8 0.8-2.1 0.8-2.9 0l-104-106.7-30.7-31.6c-0.8-0.8-0.8-2.1 0-2.9l30.8-31.6 5-5.1c4.7-4.9 11.1-7.4 18-7.2 6.8 0.2 13.3 3.1 18.3 8.2l100.3 103.2c10.1 10.4 10.5 27.1 0.8 37.1z" p-id="1774" fill="#00a680"></path></svg>