

<svg version="1.1" id="图层_1" xmlns="http://www.w3.org/2000/svg" xmlns:xlink="http://www.w3.org/1999/xlink" x="0px" y="0px"
	 viewBox="0 0 500.1 218.1" style="enable-background:new 0 0 500.1 218.1;" xml:space="preserve">
<style type="text/css">
	.st0{fill:#00AD85;}
	.st1{fill:#000A12;}
	.st2{fill:#F8C40F;}
	.st3{fill:#FFFFFF;}
	.st4{fill:#EF6945;}
	.st5{fill:#00AF87;}
	.st6{fill:#444444;}
</style>
<g>
	<g id="XMLID_75_">
		<path id="XMLID_140_" class="st0" d="M424.8,101.9c0,1.7,1.4,3.1,3.1,3.1c1.7,0,3.1-1.4,3.1-3.1c0-1.7-1.4-3.1-3.1-3.1
			C426.2,98.8,424.8,100.2,424.8,101.9"/>
		<path id="XMLID_93_" class="st0" d="M358,108.7c-3.2,0-5.9,0.6-8.4,1.8l-0.1,0.1l0.1,4.4l0.3-0.2c2.4-1.4,4.6-2,6.8-2
			c3.7,0,5.9,2.2,5.9,5.9v0.2h-2.9c-8.5,0-13.1,3.1-13.1,8.6c0,4.4,3.4,7.6,8.2,7.6c3.5,0,6.2-1.4,8.2-4v3.6h4.6v-15.3
			C367.6,112.3,364.4,108.7,358,108.7 M362.6,124c0,4.3-2.6,7.1-6.7,7.1c-2.5,0-4.2-1.6-4.2-4c0-3.1,2.9-4.8,8.3-4.8h2.6V124z"/>
		<path id="XMLID_90_" class="st0" d="M389.3,97.2v15.5c-1.9-2.6-4.5-4.1-7.9-4.1c-6.2,0-10.4,5.2-10.4,12.8
			c0,7.9,4.3,13.4,10.4,13.4c3.6,0,6.5-1.6,8.4-4.8v4.3h4.8V97h-5.2V97.2z M382.6,130.8c-3.9,0-6.3-3.4-6.3-8.8
			c0-5.4,2.5-9.1,6.2-9.1c4.2,0,6.8,3.4,6.8,9.1C389.3,127.3,386.7,130.8,382.6,130.8"/>
		<polygon id="XMLID_89_" class="st0" points="417.3,109.4 410.1,124 403.4,109.4 397.6,109.4 410,134.6 422.7,109.4 		"/>
		<polygon id="XMLID_88_" class="st0" points="430.2,109.4 425.4,109.4 425.4,134.6 430.5,134.6 430.5,109.4 		"/>
		<path id="XMLID_87_" class="st0" d="M436.5,115.8c0,3.5,2.5,5.4,6.9,7.6c2.8,1.4,4.3,2.3,4.3,4.2c0,2-1.8,3.3-4.6,3.3
			c-2,0-4.2-0.6-6.5-1.7l-0.3-0.2l-0.1,4.4l0.2,0.1c2.2,0.8,4.3,1.2,6.6,1.2c6.2,0,10.3-2.9,10.3-7.6c0-3.9-2.6-5.8-7-7.9
			c-3.3-1.5-4.6-2.4-4.6-4.1c0-1.6,1.5-2.5,3.9-2.5c2.2,0,4.2,0.5,6.1,1.4l0.3,0.2l0.2-4.4l-0.2-0.1c-2.2-0.6-4.2-0.9-6.2-0.9
			C440.2,109,436.5,111.7,436.5,115.8"/>
		<path id="XMLID_84_" class="st0" d="M469.2,108.7c-7.7,0-12.5,5.1-12.5,13.3c0,8.2,4.8,13.3,12.5,13.3c7.7,0,12.6-5.1,12.6-13.3
			C481.8,113.8,476.9,108.7,469.2,108.7 M469.2,131c-4.3,0-7.1-3.6-7.1-9.1c0-5.4,2.8-9.2,7.1-9.2c4.3,0,7.1,3.6,7.1,9.2
			C476.4,127.5,473.7,131,469.2,131"/>
		<path id="XMLID_83_" class="st0" d="M491.2,113.4v-4.1h-4.6v25.3h5.1v-12.7c0-5.3,2.3-8.3,6.2-8.3c0.6,0,1.1,0.1,1.8,0.2l0.3,0.1
			l0.1-5l-2-0.1C495.2,108.9,492.7,110.5,491.2,113.4"/>
		<path id="XMLID_82_" class="st1" d="M279.9,101.6l-4.6,1.6v6h-5.1v4.1h5v13c0,6.1,2.2,8.7,7.3,8.7c1.4,0,2.6-0.1,3.9-0.5h0.2v-4.2
			l-0.3,0.1c-1,0.3-1.8,0.6-2.4,0.6c-2.4,0-3.3-1.4-3.3-5.1v-12.6h5.9v-4.1h-5.9v-7.7H279.9z"/>
		<path id="XMLID_81_" class="st1" d="M296,113.4v-4.1h-4.6v25.3h5v-12.7c0-5.3,2.3-8.3,6.2-8.3c0.6,0,1.1,0.1,1.8,0.2l0.3,0.1
			l0.1-5l-2.2-0.1C299.9,108.9,297.5,110.5,296,113.4"/>
		<path id="XMLID_78_" class="st1" d="M332.5,108.7c-3.5,0-6.5,1.7-8.5,4.6v-4.1h-4.6v35.6h5.1V131c1.8,2.5,4.5,3.9,7.8,3.9
			c6.5,0,10.7-5.3,10.7-13.5C343.1,113.9,338.9,108.7,332.5,108.7 M331.2,130.9c-4.1,0-6.6-3.5-6.6-9.1c0-5.3,2.7-8.8,6.8-8.8
			c4,0,6.3,3.3,6.3,8.8C337.6,127.4,335.1,130.9,331.2,130.9"/>
		<polygon id="XMLID_77_" class="st1" points="314.2,109.4 309.3,109.4 309.3,134.6 314.5,134.6 314.5,109.4 		"/>
		<path id="XMLID_76_" class="st1" d="M308.8,101.9c0,1.7,1.4,3.1,3.1,3.1c1.7,0,3.1-1.4,3.1-3.1c0-1.7-1.4-3.1-3.1-3.1
			C310.2,98.8,308.8,100.2,308.8,101.9"/>
	</g>
	<g>
		<g>
			<path class="st1" d="M284.6,31.5c2.4-2.8,4.8-6.2,7.3-10.1c0.4-0.8,0.5-1.5,0.3-2.1c-0.2-0.5-0.6-0.9-1.1-1.1
				c-1.2-0.7-2.5-0.4-3.4,0.7c-0.2,0.2-0.5,0.6-1,1.3c-1.8,2.9-3.2,5.1-4.5,6.6c-1.9-3.2-4.2-6.3-7-9.2c-0.5-0.6-1-0.9-1.7-1
				c-0.6,0-1.3,0.3-1.9,0.9c-0.6,0.4-0.9,0.8-1,1.4c-0.1,0.6,0.1,1.2,0.7,1.9c2.9,3.2,5.3,6.6,7.1,10c-2.2,2.1-4.6,4.1-7.2,5.8
				c-0.6,0.4-1,0.8-1.1,1.4c-0.2,0.7,0,1.4,0.7,2.3c1,1,2.2,1.1,3.4,0.4c2.3-1.5,4.4-3.1,6.2-4.8c0.9,2.7,1.7,6,2.2,9.8
				c-3.3,5.5-7.3,9.8-11.8,12.8c-0.7,0.7-1,1.3-1,2c0,0.6,0.2,1.1,0.7,1.5c1,1.2,2.3,1.5,3.8,0.7c3.8-2.9,6.9-6.1,9.3-9.5
				c0.1,4.2,0.2,9.1,0.2,14.5c0.2,5-0.5,8.4-2.1,10.1c-0.8,0.8-1.9,1.3-3.2,1.3c-0.3,0-0.5,0-0.9-0.1l-4.7,0c-0.9,0.1-1.6,0.5-2,1
				c-0.4,0.5-0.5,1.1-0.3,1.9c0.6,2.1,1.9,2.5,3,2.5c1.3,0,2.9-0.1,4.5-0.3c3,0.2,5.5-0.7,7.2-2.5c2.6-2.7,3.7-7.4,3.5-14.2
				C288.9,50.9,287.5,38.9,284.6,31.5z"/>
			<path class="st1" d="M333.6,40.7L333.6,40.7l-35.1,0c-1.9,0.2-3,1.3-3.2,3.3l0,34.7c0.2,1.8,1.3,2.9,3.3,3.2l35,0
				c1.2-0.2,2.6-0.9,2.9-3.3l0-34.7C336.3,42,335.3,40.9,333.6,40.7z M313.1,77.1h-11.9c-0.4,0-0.5-0.1-0.5-0.5V63.3h12.4V77.1z
				 M313.1,58.4h-12.4V46.3c0-0.7,0.2-0.7,0.5-0.7h11.9V58.4z M331.5,76.6c0,0.4-0.1,0.5-0.5,0.5h-12.8V63.3h13.2V76.6z M331.5,58.4
				h-13.2V45.5H331c0.2,0,0.5,0,0.5,0.7V58.4z"/>
			<path class="st1" d="M338.7,24.4h-11.3l0-7.5c-0.2-0.9-0.8-2-2.6-2.3l-0.1,0l-0.1,0c-1.2,0.2-2,1-2.3,2.4v7.3h-12.9v-7
				c0-1.7-1-2.7-2.7-2.7c-0.9,0-2.4,0.3-2.7,2.7v7l-10,0c-0.9,0.2-2,0.8-2.3,2.7c0,0.6,0.2,2.1,2.4,2.1h9.9l0,6.9
				c0.2,1.4,1.1,2.3,2.6,2.6l0.1,0l0.1,0c2.3-0.3,2.6-1.8,2.6-2.7v-6.7h12.9l0,7.2c0.2,1.2,1,2,2.3,2.3l0.1,0l0.1,0
				c1.8-0.3,2.4-1.4,2.6-2.4v-7h11.3c1.3,0,2.1-0.8,2.1-2.1C340.8,24.7,339.4,24.4,338.7,24.4z"/>
		</g>
		<g>
			<path class="st1" d="M407.4,56.3L407.4,56.3c-1.2-1-2.5-1.1-3.5-0.3c-0.6,0.5-1,1.1-1,1.7c-0.1,0.6,0.2,1.3,0.7,1.9
				c1,1,2.6,2.8,4.8,5.4c2.1,2.4,3.6,4.2,4.6,5.4c0.5,0.6,1.1,0.9,1.8,0.9c0.5,0,1-0.1,1.7-0.5l0.1-0.1c1.2-1.2,1.3-2.5,0.3-3.8
				C413,62.3,409.9,58.9,407.4,56.3z"/>
			<path class="st1" d="M420.4,79.5c-0.4-0.5-1.1-0.9-2-1l-0.1,0c-17.7,0-30.4-0.1-36.6-0.3c-7.5-0.2-13.3-2.7-17.4-7.6l0-27
				c-0.2-1.8-1.3-2.9-3.3-3.2h-8.6c-0.9,0-2.4,0.3-2.7,2.6l0,0.1l0,0.1c0.2,0.9,0.8,2,2.7,2.3h6c0.4,0,0.5,0.1,0.5,0.5v24.1
				c-0.6,0.7-1.7,1.9-3.3,3.5c-2.9,3.3-4.3,5-5.2,6.1c-0.7,1.2-0.6,2.5,0.3,3.6l0.2,0.2c0.6,0.3,1.1,0.4,1.7,0.4
				c0.8,0,1.4-0.3,2.1-0.9c1.5-2,3.6-4.7,6.5-8.2c0.2-0.1,0.3-0.1,0.3-0.1c0.1,0,0.1,0,0.1,0c4.1,5.5,10.7,8.4,19.4,8.6h13.4
				c10.9,0.2,18.3,0.3,22.6,0.3c1.6,0,2.8-0.7,3.5-2.2l0-0.1C420.9,80.6,420.8,80,420.4,79.5z"/>
			<path class="st1" d="M415.5,48.1h-18.8v-8.1l10,0c1.2-0.2,2-1,2.3-2.3l0-0.1l0-0.1c-0.2-1.2-1-2-2.4-2.3l-25.3,0
				c-1.2,0.2-2,1-2.3,2.4l0,0.2c0.2,1.2,1,2,2.4,2.3h9.9v8.1h-19.6c-1.5,0-2.4,0.8-2.4,2.2c0.3,1.8,1.4,2.4,2.4,2.6h19.6l0,14
				c0.1,1-0.1,1.7-0.5,2.1c-0.5,0.6-1.5,0.8-2.8,0.8l-5.6,0c-0.8,0.1-1.4,0.5-1.7,1c-0.3,0.4-0.4,1-0.2,1.7c0.5,1.4,1.4,2.2,2.9,2.5
				h4.9c3.1-0.1,5.4-0.9,6.8-2.4c1.2-1.3,1.7-3,1.6-5.1V53l18.9,0c0.9-0.2,2-0.8,2.3-2.7C417.9,49.6,417.7,48.1,415.5,48.1z"/>
			<path class="st1" d="M369.6,39.4c0.9,0.7,1.7,1.1,2.5,1.1c0.2,0,0.4,0,0.7-0.1l0.1,0c8.8-5.2,15.9-11.2,21.1-17.9
				c0.2-0.3,0.4-0.4,0.6-0.4c0.2,0,0.4,0.2,0.6,0.4c4.6,7.1,11.7,12.9,20.9,17.1c1.4,0.7,2.8,0.5,3.9-0.7l0.1-0.2
				c1-2.2-0.1-3.3-0.9-3.8c-9-3.9-15.9-9.4-20.6-16.4c-1.5-2.1-2.9-3.2-4.3-3.2c-1.2,0-2.4,0.9-3.7,2.9c-5.1,6.9-12,12.8-20.6,17.5
				c-0.8,0.4-1.5,1.3-0.6,3.6L369.6,39.4z"/>
			<path class="st1" d="M363.5,30.9l0.1,0.1c0.8,0.6,1.5,1,2.3,1c0.6,0,1.2-0.2,1.8-0.7c1.2-1.2,1.3-2.5,0.4-3.8
				c-1.7-2.3-4.3-5.4-8.1-9.6c-1.2-1-2.4-1.1-3.7-0.3c-0.6,0.5-1,1.1-1,1.7c-0.1,0.6,0.2,1.3,0.7,1.9
				C358.6,24.4,361.1,27.7,363.5,30.9z"/>
			<path class="st1" d="M369.6,70.9l0.1,0.1c0.7,0.3,1.3,0.5,1.9,0.5c0.6,0,1.2-0.2,1.8-0.6c4.2-4.2,7.6-8,10.1-11.3
				c0.5-0.8,0.7-1.5,0.6-2.2c-0.1-0.6-0.5-1-1.1-1.4c-1.8-0.9-3-0.3-3.7,0.5c-3.1,3.8-6.3,7.4-9.7,10.6l-0.1,0.1
				c-0.7,1.2-0.7,2.4,0,3.6L369.6,70.9z"/>
		</g>
		<g>
			<path class="st1" d="M500.1,23.4c0-1.2-0.8-1.8-2.1-1.8h-25.7c0-0.3-0.1-0.7-0.2-1.2c-0.4-2.2-0.7-3.5-0.9-4.2
				c-0.7-1.4-1.8-2-3-1.8c-0.8,0.1-1.3,0.4-1.7,0.9c-0.3,0.5-0.5,1.1-0.3,2c0.3,1.1,0.6,2.5,1,4.3h-26.4c-2.1,0-3.3,1.1-3.3,3v20.9
				c0,10.2-0.4,17.8-1.1,22.5c-0.7,4.6-2.4,9.1-5.1,13.2c-0.7,1.2-0.6,2.5,0.3,3.6l0.2,0.2c0.5,0.3,1,0.4,1.5,0.4
				c0.8,0,1.6-0.4,2.3-1.2c2.7-4.8,4.5-9.9,5.5-15.1c1-5.2,1.4-12.9,1.4-23l0-2.5c0.1,0.1,0.1,0.2,0.2,0.3l0.2,0.2
				c1.2,0.7,2.3,0.7,3.4-0.1l0.1,0c1.1-1.1,2.1-2.2,3.1-3.4l0,11.6c0.2,1.2,1,2,2.3,2.3l0.1,0l0.1,0c1.2-0.2,2-1,2.3-2.4V34.2
				c1.5-2.1,2.8-4.1,4-6.3c0.4-1,0.2-1.8-0.4-2.4h8.2c-0.5,0.3-1,0.8-1.3,1.6c-2.1,4.3-5.3,8.9-9.7,13.6c-0.8,1-0.8,2.1,0.1,3.2
				l0.1,0.1c1,0.8,2.2,0.6,3.2-0.4c1.1-1.1,2.1-2.2,3.1-3.4v12.1c0,0.6,0.2,2.1,2.4,2.1c2.2,0,2.4-1.5,2.4-2.1v-0.2l1.5,0
				c-0.4,0.2-0.7,0.5-1.1,1l-0.1,0.1v0.4l-0.9,2H453c-2.1,0-3.3,1.1-3.3,3l0,10.1c0.2,1.9,1.3,2.9,3.3,3.2h40.1
				c0.4,0,0.5,0.1,0.5,0.5c0,0.3-0.1,0.9-0.3,2c0,0.7-0.1,1.3-0.2,1.8l-0.1,0.2l0,0.1c0.1,1.4-0.2,2.4-0.9,3.1
				c-0.7,0.7-1.9,1.1-3.6,1.1c-0.4,0-0.7,0-1.2-0.1c-4.3,0-7.6-0.1-9.6-0.3l-0.1,0l-0.1,0c-0.7,0.1-1.1,0.4-1.4,0.9
				c-0.3,0.4-0.4,1-0.2,1.8c0.6,1.8,1.6,2.2,2.4,2.2c1.1,0,2.8-0.1,5.4-0.3h4.3c6.2,0.2,9.7-2.4,10.2-7.6c0-0.7,0.1-1.8,0.3-3.1
				c0-1.3,0.1-2.3,0.3-3l0-0.1l0-0.1c-0.3-2.3-1.7-3-2.9-3.2l-40.3,0c-0.3-0.1-0.5-0.3-0.6-0.6l0-6.9c0.2-0.6,0.4-0.6,0.5-0.6
				l31.9,0c0.3,0.1,0.3,0.1,0.3,0.1l0,0c0,0,0,0,0,0.1l0,0.6c0.1,0.6,0,1.1-0.3,1.4c-0.3,0.3-0.8,0.5-1.6,0.5c-0.2,0-0.4,0-0.6,0
				l-7.2,0l-0.1,0c-0.6,0.1-1,0.4-1.2,0.8c-0.2,0.4-0.3,0.9-0.1,1.5c0.3,0.8,1,1.4,2.4,1.6l7.1,0c4,0.2,6.3-1.6,6.7-5.2l0.3-2.4
				c0-1.9-1.1-3-3-3h-19.1l0.3-0.8c0.2-0.6,0.3-1.2,0-1.7c-0.2-0.4-0.6-0.8-1.1-1l27.7,0l0.1,0c1.5-0.4,1.7-1.3,1.7-1.8
				c0-1.1-0.7-1.8-1.8-1.8h-13.6v-2.3l11.9,0l0.1,0c1.5-0.4,1.7-1.4,1.7-1.8c0-1.1-0.7-1.8-1.8-1.8h-11.9v-2.3l11.9,0l0.1,0
				c1.5-0.4,1.7-1.3,1.7-1.8c0-1.1-0.7-1.8-1.8-1.8h-11.9v-2.3h13.3c1.1,0,1.8-0.8,1.8-2.1c0-1.1-0.7-1.8-1.8-1.8h-12.9
				c-0.1-0.4-0.3-0.9-0.5-1.5c-0.2-1.4-0.5-1.9-0.6-2.2c-0.2-0.4-0.4-0.7-0.7-1H498C499.3,25.5,500.1,24.7,500.1,23.4z M453.8,26.2
				c-2.8,5.4-6.5,10.3-11.1,14.5c-0.1,0.1-0.1,0.2-0.2,0.3l0-14.6c0.1-0.4,0.2-0.9,0.5-0.9h11.4C454.2,25.7,454,25.9,453.8,26.2z
				 M479.2,48.4h-12.9v-2.3h12.9V48.4z M479.2,42.4h-12.9v-2.3h12.9V42.4z M479.2,36.4h-12.9v-2.3h12.9V36.4z M478.7,28.1l0,0.1
				c0.3,0.5,0.5,1.1,0.8,1.9h-11.2c0.1-0.2,0.2-0.3,0.3-0.5c0.2-0.6,0.4-0.8,0.5-0.9l0.1-0.2l0-0.1c0.3-1.6-0.5-2.4-1.2-2.7
				c-0.1-0.1-0.2-0.1-0.3-0.1h11.9C478.6,26.3,478.5,27.3,478.7,28.1z"/>
			<path class="st1" d="M487.6,78.1c1.7-0.4,2-1.5,2-2.1l0-0.2c-0.3-0.8-0.9-1.3-2-1.6l-0.1,0l-43.6,0l-0.1,0
				c-1.3,0.3-1.7,1-1.9,1.7l0,0.1c0,0.8,0.4,1.8,2.1,2.1L487.6,78.1L487.6,78.1z"/>
			<path class="st1" d="M474.4,63.3h-0.2c0,0,0,0-0.1-0.1l-0.2-0.2c-3.7-1.5-6.2-2.6-7.7-3.1c-0.5-0.3-1.5-0.6-2.8,0.7l-0.1,0.2
				l0,0.1c-0.3,1,0,1.9,0.9,2.5c2.3,1.1,5,2.3,8,3.4c0.5,0.3,0.9,0.4,1.4,0.4c0.5,0,1.3-0.2,1.9-1.2l0.1-0.2
				c0.3-1.3-0.3-2.1-0.9-2.5L474.4,63.3z"/>
		</g>
	</g>
	<g>
		<path class="st2" d="M165.9,26.8c6.5-2.4,13.1-3.6,19.7-3.8c-17.9-8-38.2-12.1-60.7-12.1c-22.3,0-42.9,4.2-60.8,11.8
			c32.4,0.7,58.8,26,61.1,58c0.6-7.3,2.4-14.6,5.5-21.4C137.7,44.2,150.2,32.6,165.9,26.8"/>
		<path class="st3" d="M187.4,64.5c-11.2,0-20.3,9.1-20.3,20.3c0,11.2,9.1,20.3,20.3,20.3c11.2,0,20.3-9.1,20.3-20.3
			C207.7,73.6,198.6,64.5,187.4,64.5 M187.4,95.2c-5.8,0-10.4-4.7-10.4-10.4c0-5.8,4.6-10.4,10.4-10.4c5.7,0,10.4,4.6,10.4,10.4
			C197.8,90.5,193.2,95.2,187.4,95.2"/>
		<path class="st3" d="M170.6,38.7c-12.5,4.6-22.5,13.8-28.1,26c-5.6,12.1-6.1,25.7-1.5,38.2v0c4.6,12.5,13.8,22.5,25.9,28.1
			c12.1,5.6,25.7,6.1,38.2,1.5c25.8-9.6,39.1-38.4,29.6-64.2C225.3,42.4,196.5,29.1,170.6,38.7 M187.4,115.7
			c-17,0-30.9-13.9-30.9-30.9c0-17,13.9-30.9,30.9-30.9c17,0,30.9,13.9,30.9,30.9C218.3,101.8,204.5,115.7,187.4,115.7"/>
		<path class="st3" d="M62.1,64.5c-11.2,0-20.3,9.1-20.3,20.3c0,11.2,9.1,20.3,20.3,20.3c11.2,0,20.2-9.1,20.2-20.3
			C82.3,73.6,73.2,64.5,62.1,64.5 M62,95.2c-5.8,0-10.4-4.7-10.4-10.4c0-5.8,4.6-10.4,10.4-10.4c5.7,0,10.4,4.6,10.4,10.4
			C72.4,90.5,67.8,95.2,62,95.2"/>
		<path class="st3" d="M62.8,35.4c-27.6,0-50,22.4-50,50c0,27.5,22.4,49.9,50,49.9c27.5,0,50-22.4,50-49.9
			C112.8,57.8,90.4,35.4,62.8,35.4 M62.1,115.7c-17.1,0-30.9-13.9-30.9-30.9c0-17,13.9-30.9,30.9-30.9c17,0,30.9,13.9,30.9,30.9
			C92.9,101.8,79.1,115.7,62.1,115.7"/>
		<path class="st4" d="M62,74.4c-5.8,0-10.4,4.6-10.4,10.4c0,5.7,4.6,10.4,10.4,10.4c5.7,0,10.4-4.7,10.4-10.4
			C72.4,79,67.8,74.4,62,74.4"/>
		<path class="st5" d="M187.4,74.4c-5.8,0-10.4,4.6-10.4,10.4c0,5.7,4.6,10.4,10.4,10.4c5.7,0,10.4-4.7,10.4-10.4
			C197.8,79,193.2,74.4,187.4,74.4"/>
		<path class="st1" d="M237.8,48.3c2.9-12.5,12.3-25,12.3-25l-41.8,0C184.9,8.1,156.5,0,124.9,0C92.2,0,62.7,8.3,39.4,23.5l-39.2,0
			c0,0,9.2,12.4,12.3,24.8C4.8,58.7,0.2,71.5,0.2,85.3c0,34.5,28.1,62.6,62.6,62.6c19.7,0,37.3-9.2,48.8-23.5l13.3,19.9l13.5-20.1
			c6,7.7,13.8,13.9,23,18.1c15.2,7,32.2,7.7,47.9,1.9c32.4-12,49-48.1,37-80.4C244.2,58.1,241.3,52.9,237.8,48.3 M166.7,130.9
			c-12.1-5.6-21.3-15.6-25.9-28.1v0c-4.6-12.5-4.1-26.1,1.5-38.2c5.6-12.1,15.6-21.3,28.1-26c25.8-9.5,54.6,3.7,64.2,29.6
			c9.5,25.8-3.7,54.6-29.6,64.2C192.4,137.1,178.8,136.5,166.7,130.9 M62.8,135.3c-27.6,0-50-22.4-50-49.9c0-27.6,22.4-50,50-50
			c27.5,0,50,22.4,50,50C112.8,112.9,90.4,135.3,62.8,135.3 M165.9,26.8c-15.7,5.8-28.2,17.3-35.2,32.5c-3.2,6.9-4.9,14.1-5.5,21.4
			c-2.3-32-28.7-57.3-61.1-58c17.9-7.7,38.5-11.8,60.8-11.8c22.5,0,42.7,4.1,60.7,12.1C179,23.2,172.4,24.4,165.9,26.8"/>
		<path class="st1" d="M62.1,53.9c-17.1,0-30.9,13.9-30.9,30.9c0,17,13.9,30.9,30.9,30.9c17,0,30.9-13.9,30.9-30.9
			C92.9,67.7,79.1,53.9,62.1,53.9 M62.1,105c-11.2,0-20.3-9.1-20.3-20.3c0-11.2,9.1-20.3,20.3-20.3c11.2,0,20.2,9.1,20.2,20.3
			C82.3,95.9,73.2,105,62.1,105"/>
		<path class="st1" d="M187.4,53.9c-17,0-30.9,13.9-30.9,30.9c0,17,13.9,30.9,30.9,30.9c17,0,30.9-13.9,30.9-30.9
			C218.3,67.7,204.5,53.9,187.4,53.9 M187.4,105c-11.2,0-20.3-9.1-20.3-20.3c0-11.2,9.1-20.3,20.3-20.3c11.2,0,20.3,9.1,20.3,20.3
			C207.7,95.9,198.6,105,187.4,105"/>
	</g>
	<g>
		<g>
			<path class="st6" d="M45.6,213H26.2v-10.6h15c0.6,0,1-0.1,1.2-0.4c0.3-0.3,0.4-0.7,0.4-1.5c0-0.9-0.6-1.4-1.6-1.4h-15v-8.6h15.9
				c0.6,0,1-0.1,1.2-0.4c0.2-0.3,0.4-0.7,0.4-1.2c0-1-0.6-1.7-1.6-1.7H7.1c-0.6,0-1,0.1-1.2,0.4c-0.2,0.3-0.4,0.7-0.4,1.3
				c0,0.6,0.1,0.9,0.3,1.2c0.2,0.3,0.6,0.4,1.3,0.4H23v8.6H8c-0.7-0.2-1.2,0.2-1.3,0.5c-0.3,0.3-0.4,0.8-0.4,1.2
				c0,0.5,0.1,0.9,0.4,1.2c0.2,0.2,0.6,0.6,1.3,0.4H23V213H3.9c-0.6,0-1,0.1-1.2,0.4c-0.2,0.2-0.4,0.7-0.4,1.3
				c0,0.6,0.1,1.1,0.4,1.3c0.2,0.2,0.6,0.4,1.2,0.4h41.8c0.6,0,1-0.1,1.3-0.4c0.2-0.3,0.3-0.7,0.3-1.3c0-0.6-0.1-1-0.3-1.3
				C46.7,213.1,46.3,213,45.6,213z"/>
			<path class="st6" d="M47.6,184.8c-2.7-1.3-6-3.5-9.8-6.3c-1.9-1.4-3.7-2.8-5.2-4.1c-1.6-1.3-3-2.6-4.3-3.8
				c-1.2-1.2-2.3-1.9-3.3-1.9c-1,0-2,0.6-3.1,1.7c-6.3,6.7-13,11.6-19.8,14.7c-0.9,0.4-2,1-2,2c0,0.4,0.1,0.7,0.4,1.1
				c0.3,0.4,0.7,0.5,1.2,0.5c0.7,0,2.3-0.5,8.3-4.3c2.2-1.4,4.5-3.1,6.8-5c2.4-1.9,4.8-4.1,7.4-6.5c0.4-0.4,0.7-0.5,0.8-0.5
				c0.2,0,0.4,0.1,0.6,0.3c5.4,4.8,10.2,8.7,14.3,11.4c5.7,3.8,7.1,4.3,7.7,4.3c0.3,0,0.8-0.1,1.2-0.8c0.2-0.4,0.3-0.8,0.3-1.1
				C49.3,185.8,48.3,185.2,47.6,184.8z"/>
		</g>
		<g>
			<path class="st6" d="M114.8,193.7c0.6,1.1,1,1.6,1.5,1.6c0.4,0,0.8-0.1,1-0.4c0.4-0.3,0.6-0.7,0.6-1.2c0-0.3-0.1-0.8-0.9-2.3
				c-0.3-0.6-0.7-1.2-1.1-2c-0.5-0.7-1-1.6-1.6-2.5c-1.2-2-1.9-3.1-2.2-3.5c-0.8-0.9-2-0.8-2.6,0.2c-0.5,0.8,0.2,1.8,0.4,2.1
				c1,1.5,2,3,2.8,4.2C113.6,191.3,114.3,192.5,114.8,193.7z"/>
			<path class="st6" d="M118.7,200c0.6-0.7,1-1.2,1.1-1.4c0.5-0.7,0.7-1.1,0.7-1.5c0-0.4-0.2-0.7-0.5-1.1c-0.9-0.9-1.9-0.5-2.9,0.8
				c-3.9,5-7.5,8.6-10.8,10.9c-0.6,0.4-1,0.8-1.2,1.2c-0.2,0.4-0.2,0.8-0.1,1.2c0.1,0.3,0.3,0.6,0.6,0.8c0.3,0.2,0.5,0.3,0.7,0.3
				l0.1,0c0.3,0,0.7-0.1,1.7-0.8c0.7-0.5,1.8-1.4,3.4-2.8c1.5-1.4,3.2-3.1,5-5.1C117.5,201.5,118.2,200.7,118.7,200z"/>
			<path class="st6" d="M138.4,208.7c-3.7-3-7.1-7.4-10.3-13.2c0.7-0.5,1.8-1.6,4.1-4.5c3.2-4,3.6-5.1,3.6-5.7
				c0-0.3-0.1-0.5-0.3-0.8c-0.2-0.3-0.5-0.5-0.8-0.6c-0.3-0.1-0.7-0.1-1.1,0.1c-0.4,0.1-0.7,0.5-1,1c-0.9,1.5-1.9,3-3,4.3
				c-1,1.2-2,2.3-3.1,3.5c-0.4-0.8-0.8-1.6-1.1-2.3c-0.4-1-0.9-1.9-1.3-2.9v-6.7h13c0.9,0,1.5-0.6,1.5-1.5c0-1-0.6-1.6-1.5-1.6h-13
				v-8c0-0.9-0.6-1.5-1.5-1.5c-1,0-1.5,0.6-1.5,1.5v8h-12.3c-0.9,0-1.4,0.6-1.4,1.6c0,0.9,0.5,1.5,1.4,1.5H121v31.5
				c0,2.1-0.8,2.1-1.2,2.1c-0.7,0-1.6-0.3-2.8-0.9c-0.8-0.4-1.7-0.4-2.4,0.3c-0.2,0.4-0.3,0.8-0.3,1.3c0,0.9,1.2,1.4,2.2,1.7
				c0.9,0.4,1.8,0.6,2.7,0.7c0.2,0,0.4,0,0.5,0c0.7,0,1.3-0.1,1.9-0.3c0.7-0.3,1.3-0.8,1.8-1.4c0.4-0.7,0.6-1.5,0.6-2.5v-18.9
				c1.2,2.4,2.4,4.7,3.7,6.7c1.7,2.6,3.5,5,5.4,7.1l2.3,2.4c0.8,0.8,1.1,1,1.2,1.1c0.9,0.6,1.4,0.8,2.1,0.2c0.3-0.2,0.5-0.5,0.6-0.9
				c0.1-0.3,0.1-0.7-0.1-1.1C139.2,209.5,138.8,209.1,138.4,208.7z"/>
			<path class="st6" d="M107.4,206.3c0.5-0.4,0.8-0.8,0.8-1.3c0-0.4-0.2-0.8-0.4-1c-0.3-0.4-0.6-0.6-1.1-0.6c-0.4,0-0.9,0.2-1.5,0.7
				c-0.7,0.5-1.5,1.1-2.3,1.6c-0.6,0.4-1.2,0.7-1.9,1.1v-15.2h5.3c0.6,0,0.9-0.3,1.1-0.5c0.3-0.3,0.4-0.6,0.4-1c0-0.4-0.1-0.7-0.4-1
				c-0.3-0.3-0.7-0.5-1.1-0.5H101v-12.4h5.7c0.4,0,0.8-0.1,1.1-0.4c0.3-0.3,0.5-0.7,0.5-1.1c0-0.9-0.6-1.5-1.5-1.5H91.9
				c-0.9,0-1.4,0.6-1.4,1.5c0,0.4,0.2,0.8,0.4,1.1c0.3,0.3,0.6,0.4,1,0.4H98v12.4h-5.3c-0.9,0-1.4,0.6-1.4,1.5
				c0,0.4,0.2,0.8,0.4,1.1c0.3,0.3,0.6,0.4,1,0.4H98v16.7c-2,1-4,1.7-5.7,2.1c-1.4,0.3-1.7,1.1-1.7,1.6c0,0.4,0.1,0.8,0.4,1.1
				c0.2,0.3,0.6,0.4,1.1,0.4c0,0,0.1,0,0.1,0c0.4,0,1-0.1,1.7-0.4c0.7-0.2,1.6-0.5,2.7-0.9c1.1-0.4,2.2-0.9,3.4-1.5
				c1.1-0.6,2.3-1.2,3.5-1.9c1.2-0.7,2.1-1.3,2.8-1.7C106.8,206.8,107.3,206.5,107.4,206.3z"/>
			<path class="st6" d="M127.9,172.3c1.3,0.9,2.4,1.7,3.2,2.3c0.8,0.6,1.4,1.1,1.8,1.5c1.1,1,1.6,1.2,1.9,1.2c0.4,0,0.8-0.2,1.1-0.5
				c0.3-0.3,0.4-0.7,0.4-1c0-0.4-0.2-0.8-0.6-1.3c-0.3-0.4-1-0.9-2.1-1.8l-1.5-1.1c-0.5-0.4-1-0.7-1.5-1.1c-1.4-1-1.9-1.1-2.2-1.1
				l-0.2,0c-0.2,0.1-0.4,0.2-0.6,0.4c-0.3,0.2-0.5,0.4-0.6,0.7c-0.1,0.2-0.1,0.5,0,1C127.1,171.7,127.4,172,127.9,172.3z"/>
		</g>
		<g>
			<path class="st6" d="M201.7,175.8h23.1c0.9,0,1.5-0.6,1.5-1.6c0-1-0.6-1.6-1.5-1.6h-23.1c-0.9,0-1.5,0.6-1.5,1.6
				C200.2,175.2,200.7,175.8,201.7,175.8z"/>
			<path class="st6" d="M197.6,208.5c0.9-0.5,1.1-0.7,1.3-0.9c0.3-0.3,0.5-0.7,0.6-1.1c0.1-0.6-0.1-0.9-0.3-1.2
				c-0.2-0.2-0.5-0.5-1.1-0.5c-0.4,0-1,0.2-1.6,0.6c-0.9,0.6-1.8,1.1-2.9,1.7c-0.8,0.4-1.7,0.9-2.7,1.4v-16.9h5.4
				c0.5,0,0.8-0.2,1.1-0.5c0.3-0.3,0.4-0.6,0.4-1c0-0.4-0.1-0.7-0.4-1c-0.3-0.3-0.7-0.5-1.1-0.5H191v-12.6h6c0.6,0,1-0.3,1.2-0.5
				c0.2-0.3,0.3-0.6,0.3-1c0-0.4-0.1-0.7-0.3-1c-0.2-0.3-0.5-0.6-1.2-0.6h-14.7c-0.9,0-1.4,0.6-1.4,1.6c0,0.4,0.1,0.8,0.4,1.1
				c0.3,0.3,0.6,0.5,1,0.5h5.7v12.6h-5.2c-0.9,0-1.4,0.6-1.4,1.5c0,0.4,0.2,0.8,0.4,1.1c0.3,0.3,0.6,0.4,1,0.4h5.2V210
				c-1.7,0.7-3.6,1.4-5.7,2c-1.1,0.3-1.7,0.9-1.7,1.7c0,0.9,0.6,1.5,1.6,1.5c0.5,0,1.6-0.2,5.3-1.6c1.4-0.5,2.7-1.1,3.9-1.7
				c1.2-0.6,2.4-1.2,3.6-1.8C196.1,209.4,197,208.9,197.6,208.5z"/>
			<path class="st6" d="M228.2,201.8c-0.7,0-1.1,0.2-1.4,0.6c-0.2,0.3-0.3,0.8-0.3,1.4c0,3.2-0.1,5.4-0.3,6.5
				c-0.2,1.2-0.6,2-1.2,2.3c-0.6,0.4-1.5,0.6-2.7,0.6c-0.6,0-1.1-0.1-1.5-0.2c-0.3-0.1-0.6-0.3-0.8-0.6c-0.2-0.3-0.4-0.8-0.5-1.4
				c-0.1-0.7-0.1-1.5-0.1-2.6v-18.7h7.8c0.9,0,1.5-0.6,1.5-1.6c0-1-0.6-1.6-1.5-1.6h-28.3c-0.9,0-1.5,0.6-1.5,1.6
				c0,1,0.6,1.6,1.5,1.6h6.8c-0.1,6.1-0.5,10.5-1.2,13.1c-0.7,2.6-1.7,4.9-2.8,6.6c-0.5,0.8-1.3,1.7-2.2,2.5c-1,0.8-2.2,1.7-3.6,2.5
				c-0.5,0.3-0.9,0.7-1.1,1c-0.2,0.4-0.2,0.8-0.1,1.1c0.1,0.3,0.3,0.6,0.6,0.8c0.3,0.2,0.5,0.3,0.9,0.4c0.6,0,1.8-0.3,5.1-3.2
				c2.4-2,4.3-5,5.6-8.8c0.7-1.9,1.2-4.3,1.5-7c0.3-2.6,0.5-5.6,0.6-9.1h7.3v18.9c0,3.3,0.4,5.4,1.2,6.4c0.9,1.1,2.5,1.6,5,1.6
				c2.5,0,4.2-0.5,5.1-1.6c0.9-1,1.5-2.5,1.8-4.4c0.3-1.8,0.4-4.2,0.4-7.1C229.8,202.5,229.2,201.8,228.2,201.8z"/>
		</g>
		<g>
			<path class="st6" d="M314.5,205.9c-1.7-2.4-3.1-4.4-4.3-5.9c-1.6-2.1-2.2-2.6-2.3-2.7c-0.5-0.6-1.2-0.7-1.9-0.3
				c-0.3,0.1-0.5,0.4-0.6,0.7c-0.1,0.3-0.1,0.6,0,1c0.1,0.4,0.3,0.8,0.7,1.2c0.8,1,1.6,2,2.5,3.1c0.9,1.1,1.8,2.4,2.7,3.7
				c0.9,1.3,1.8,2.6,2.5,3.7c0.7,1.2,1.4,2.3,1.9,3.2c0.3,0.6,0.6,0.9,1,1.1c0.2,0.1,0.5,0.2,0.7,0.2c0.1,0,0.3,0,0.4-0.1
				c0.3-0.1,0.6-0.3,0.8-0.6c0.2-0.3,0.3-0.5,0.4-0.9c0-0.3-0.1-0.8-1-2.4C317.3,209.9,316.2,208.2,314.5,205.9z"/>
			<path class="st6" d="M318.6,193.5c0-1-0.6-1.6-1.5-1.6h-18.9v-12.4c0-0.9-0.6-1.5-1.6-1.5s-1.6,0.6-1.6,1.5v12.4h-15.5
				c-0.7,0-1-0.1-1.2-0.1c-0.2-0.1-0.3-0.1-0.3-0.2c0-0.1,0-0.1,0-0.2c0-0.2,0.1-0.4,0.2-0.7l2.1-12.3c0.2-0.8,0.4-1.1,0.4-1.1
				c0,0,0.3-0.2,1.4-0.2c4,0,8.6-0.3,13.7-0.8c2.5-0.3,4.8-0.5,6.8-0.8c2-0.3,3.7-0.5,5.2-0.8c4-0.8,4.8-1.1,5.1-1.3
				c0.5-0.4,0.8-0.8,0.8-1.2c0-0.9-0.5-1.3-0.9-1.5c-0.5-0.3-1.2-0.2-2.2,0.1c-2.2,0.8-6.2,1.5-11.8,2.1c-2.9,0.3-5.6,0.6-8.2,0.8
				c-2.5,0.2-5,0.3-7.3,0.3l-3-0.1c-1.2,0-2.7,0.5-3.1,3l-2.3,13.8c-0.1,0.7-0.2,1.2-0.2,1.6c0,1.1,0.4,1.9,1.2,2.3
				c0.7,0.4,1.8,0.6,3.3,0.6H295v17.6c0,0.7-0.1,1.1-0.4,1.4c-0.2,0.2-0.6,0.3-1.1,0.3c-1.3,0-3.4-0.7-6.2-2.1
				c-0.5-0.4-1-0.4-1.3-0.3c-0.4,0.1-0.7,0.3-1,0.5c-0.3,0.3-0.4,0.6-0.5,1c0,0.3,0.1,0.7,0.5,1.1c0.2,0.2,0.6,0.4,2.4,1.2
				c1.3,0.6,2.5,1,3.5,1.3c1,0.2,1.9,0.4,2.8,0.4c2.9,0,4.4-1.5,4.4-4.2v-18.3h18.9C318.1,195.1,318.6,194.5,318.6,193.5z"/>
			<path class="st6" d="M286.5,198.1c0-0.2-0.1-0.5-0.3-0.8c-0.2-0.3-0.4-0.5-0.8-0.6c-0.3-0.1-0.7-0.1-1.1,0.1
				c-0.4,0.2-0.7,0.5-1.1,1.1c-0.9,1.7-2.5,4.1-4.7,7c-2.2,2.8-4.2,5.1-5.8,6.7c-0.4,0.4-0.7,0.8-0.8,1.2c-0.1,0.4-0.1,0.7,0,1
				c0.1,0.3,0.3,0.5,0.6,0.7c0.3,0.2,0.5,0.2,0.8,0.2c0.3,0,0.7-0.1,1-0.3c0.2-0.1,0.6-0.5,1.9-2c1-1.1,2.1-2.4,3.3-3.7
				c1.1-1.4,2.3-2.9,3.5-4.6c1.2-1.7,2.1-3.1,2.6-4C286.4,198.9,286.5,198.4,286.5,198.1z"/>
		</g>
		<g>
			<path class="st6" d="M381,175.8h25c0.9,0,1.5-0.6,1.5-1.6c0-1-0.6-1.6-1.5-1.6h-25c-0.9,0-1.5,0.6-1.5,1.6
				C379.5,175.3,380.1,175.8,381,175.8z"/>
			<path class="st6" d="M362.5,184.7c0.3,0.3,0.7,0.5,1.1,0.5c0.4,0,0.9-0.2,1.6-0.8c0.5-0.4,1.5-1.4,2.9-3c0.7-0.8,1.3-1.5,1.9-2.3
				c0.6-0.7,1.2-1.5,1.7-2.3c1.1-1.5,2-2.8,2.7-4.1c1-1.7,1.2-2.3,1.2-2.6c0-0.3-0.1-0.7-0.7-1c-0.3-0.2-0.7-0.3-1.2-0.3
				c-0.5,0-1,0.5-1.7,1.6c-2.4,4.3-5.3,8-8.7,11.2c-0.4,0.4-0.7,0.7-0.9,1c-0.2,0.3-0.3,0.5-0.4,0.8c-0.1,0.3,0,0.5,0.1,0.8
				C362.2,184.3,362.3,184.5,362.5,184.7z"/>
			<path class="st6" d="M408.9,186.7h-31.1c-0.9,0-1.5,0.6-1.5,1.6c0,1,0.6,1.6,1.5,1.6h19.4l0,21.3c0,0.6-0.2,1.2-0.5,1.8
				c-0.3,0.5-0.8,0.8-1.5,1c-0.8,0.2-1.9,0.2-3.3,0c-1.4-0.2-3.2-0.8-5.4-1.7c-1-0.4-1.8-0.5-2.4-0.2c-0.4,0.2-0.9,0.7-0.9,1.6
				c0,0.4,0.2,1,1,1.4c0.6,0.3,1.9,0.8,4,1.3c2.1,0.5,3.9,0.8,5.5,0.8c4.3,0,6.6-2.1,6.6-6V190h8.6c0.9,0,1.4-0.6,1.4-1.6
				C410.4,187.3,409.8,186.7,408.9,186.7z"/>
			<path class="st6" d="M375.5,182.3c-0.3-0.2-0.7-0.4-1.2-0.4c-0.5,0-1,0.5-1.7,1.7c-2.7,4.7-6.1,9.1-10.1,12.9
				c-1.2,1.2-1.5,1.7-1.5,2.1c0,0.4,0.1,0.7,0.4,1.1c0.5,0.5,1.3,0.5,2.1,0.1c0.2-0.1,0.7-0.5,2.4-2.3c0.6-0.7,1.2-1.3,1.6-1.9
				c0.1-0.1,0.2-0.3,0.3-0.4v21.2c0,0.9,0.6,1.5,1.5,1.5c1,0,1.5-0.5,1.5-1.5v-25c0.5-0.7,1.1-1.4,1.6-2.1c0.5-0.7,1-1.5,1.5-2.2
				c1-1.5,1.5-2.4,1.7-2.8c0.3-0.4,0.4-0.8,0.4-1.2C376.1,183,375.9,182.6,375.5,182.3z"/>
		</g>
		<g>
			<path class="st6" d="M498.3,210.6c-1.5-1-2.9-2-4.2-3.1c-1.3-1.1-2.5-2.2-3.6-3.5c-1.1-1.2-2.2-2.6-3.1-4.1
				c-0.9-1.3-1.8-2.8-2.6-4.3c1-0.6,2-1.2,2.9-1.7c1-0.7,2-1.3,2.8-1.9c0.8-0.6,1.5-1.1,2.1-1.6c0.6-0.5,1-0.8,1.2-1
				c0.6-0.6,0.9-1.1,0.9-1.6c0-0.5-0.2-0.9-0.5-1.1c-0.3-0.2-0.7-0.4-1.1-0.4c-0.2,0-0.6,0.1-1.9,1.2c-2.7,2.3-6,4.5-9.8,6.5
				c-0.9-2.5-2.8-5.3-5.5-8.1c0.6-0.4,1.1-0.8,1.6-1.1c0.5-0.4,1-0.7,1.3-1h11.6c1.1,0,1.8-0.6,1.8-1.7c0-0.5-0.2-0.9-0.5-1.2
				c-0.3-0.2-0.7-0.3-1.3-0.3h-31.1c-0.5,0-0.9,0.1-1.2,0.3c-0.4,0.3-0.4,0.9-0.4,1.3c0,0.6,0.1,1,0.4,1.2c0.3,0.2,0.7,0.4,1.2,0.4
				h14.5c-2.8,1.9-5.7,3.6-8.7,5.1c-1.7,0.9-3.4,1.7-5,2.3c-1.6,0.7-3.1,1.3-4.5,1.7c-0.5,0.2-2.2,0.7-2.2,1.9
				c0,0.3,0.1,0.6,0.3,0.9c0.2,0.4,0.6,0.7,1.2,0.7c0.6,0,1.9-0.3,7.2-2.5c3.8-1.7,7.7-3.8,11.5-6.3c0.8,0.9,1.7,1.9,2.5,3.1
				c-3,2.4-6.4,4.6-10,6.6c-3.7,2.1-7.3,3.8-10.8,5c-0.7,0.3-1.2,0.5-1.5,0.7c-0.5,0.3-0.6,0.7-0.6,1c0,0.3,0.1,0.6,0.3,1
				c0.2,0.5,0.6,0.7,1.2,0.7c0.7,0,2.4-0.4,9.2-3.6c4.8-2.3,9.5-5.2,13.9-8.7c0.3,0.7,0.7,1.4,0.9,2c0.3,0.7,0.5,1.4,0.7,2.2
				c-4,3.3-8,6.2-12,8.5c-4,2.3-8.4,4.2-13.2,5.6c-0.7,0.2-1.2,0.4-1.5,0.6c-0.4,0.3-0.6,0.7-0.6,1.2c0,1,0.6,1.7,1.5,1.7
				c0.7,0,2.6-0.4,9.8-3.6c5.1-2.3,10.7-5.7,16.5-10.3c0,0,0,0.1,0,0.1c0,0.4,0,0.8,0,1.1c0,3.3-0.6,6.1-1.8,8.4
				c-1.1,2.3-2.7,3.4-5,3.4c-1.7,0-3.9-0.6-6.6-1.7c-0.7-0.3-1.3-0.3-1.8,0c-0.5,0.3-0.8,0.8-0.8,1.4c0,0.3,0.1,0.8,0.6,1.1
				c0.2,0.2,0.8,0.5,3.5,1.4c2,0.7,3.8,1,5.4,1c1.7,0,3.2-0.4,4.4-1.3c1.3-0.9,2.4-2.2,3.2-3.9c0.8-1.6,1.3-3.1,1.6-4.6
				c0.2-1.5,0.4-3.2,0.4-5.1c0-1.8-0.2-3.6-0.6-5.3c1.3,2.3,2.6,4.5,4,6.4c1.5,2.1,3.2,4,4.9,5.7c4.7,4.6,6.3,5.2,7.1,5.2
				c0.7,0,1.1-0.3,1.3-0.5c0.3-0.3,0.4-0.7,0.4-1.1C500.1,212.1,499.5,211.4,498.3,210.6z"/>
			<path class="st6" d="M454.4,185.4c1,0,1.6-0.6,1.6-1.6V178c0-0.6,0.1-1,0.4-1.4c0.3-0.3,0.6-0.5,1-0.5h34.7
				c2.3,0,2.6,0.9,2.6,1.8c0,1-0.4,2.3-1.3,3.9c-0.6,1.1-0.7,1.9-0.4,2.4c0.3,0.5,0.8,0.8,1.3,0.8c0.8,0,1.6-0.9,2.4-2.9
				c0.7-1.8,1.1-3.4,1.1-4.7c0-1.4-0.4-2.5-1.3-3.3c-0.9-0.8-2.1-1.2-3.7-1.2h-16.4c-0.7-2-1.2-3.3-1.5-3.8
				c-0.2-0.3-0.6-1.1-1.3-1.1c-0.3,0-0.7,0.1-1,0.3c-0.4,0.2-0.6,0.6-0.6,1.1c0,0.3,0.1,0.7,0.7,2c0.2,0.4,0.4,0.8,0.5,1.2
				c0,0.1,0.1,0.2,0.1,0.3h-16c-1.3,0-2.4,0.5-3.3,1.4c-0.8,0.9-1.2,2.2-1.2,3.7v5.9C452.8,184.9,453.4,185.4,454.4,185.4z"/>
		</g>
	</g>
</g>
</svg>
