<?xml version="1.0" standalone="no"?><!DOCTYPE svg PUBLIC "-//W3C//DTD SVG 1.1//EN" "http://www.w3.org/Graphics/SVG/1.1/DTD/svg11.dtd"><svg t="1552007484520" class="icon" style="" viewBox="0 0 1024 1024" version="1.1" xmlns="http://www.w3.org/2000/svg" p-id="3556" xmlns:xlink="http://www.w3.org/1999/xlink" width="54" height="54"><defs><style type="text/css"></style></defs><path d="M768.481245 289.332298C602.24084 289.366579 421.124035 289.332298 254.878552 289.332298L252.567859 289.332298C229.585351 289.832527 212.272927 307.1805 212.237378 330.093179 212.237378 447.354508 212.237378 575.833761 212.336408 693.093818 212.336408 697.522223 213.075322 702.085206 214.45412 706.281274 220.088656 723.390559 235.051029 733.791218 253.470555 733.791218L764.227321 733.791218C765.635319 733.791218 770.797016 733.825496 772.239295 733.755669 783.21001 733.185613 792.539115 728.994625 800.052675 720.94148 807.769377 712.653454 810.923092 702.655262 810.854533 691.382381 810.789781 627.638991 810.824062 558.313302 810.824062 494.569912 810.824062 442.263184 810.824062 384.413512 810.854533 332.077582 810.854533 324.122196 808.718864 316.509605 804.558348 309.59657 797.102099 295.704481 784.583729 289.296749 768.481245 289.332298ZM739.73089 328.523757C738.590778 329.600389 737.816315 330.339302 737.012652 331.043938 665.583034 392.371256 594.122945 453.704923 522.656507 515.06779 520.782562 516.680197 519.071125 518.489395 517.221299 520.131002 514.741748 522.347743 512.931284 522.347743 510.412374 520.166551 489.107021 501.781306 467.904507 483.293221 446.534405 464.943525 394.594595 420.288745 342.595112 375.698716 290.626102 331.078216 289.851636 330.404054 289.078444 329.699419 287.774552 328.523757L739.73089 328.523757 739.73089 328.523757ZM771.33787 675.907267C770.598956 675.236913 770.063181 674.800165 769.556606 674.230109 723.995325 625.380534 678.402302 576.52969 632.870221 527.683921 629.785065 524.327068 626.39774 521.5098 621.899506 520.270659 613.716859 518.018369 604.889251 521.241912 600.093929 528.388557 595.396366 535.366342 595.496664 545.364534 600.931873 551.638954 610.022291 562.207199 619.450426 572.50756 628.778263 582.838388 661.659934 619.309251 694.605084 655.810586 727.521036 692.311917 728.155841 693.021631 728.760176 693.755466 729.662871 694.796549L300.588742 694.796549C301.327656 693.859575 301.898982 693.120661 302.498239 692.451575 343.666665 646.854744 384.799542 601.158884 426.066995 555.596332 431.566953 549.490769 434.959355 542.915451 432.776893 534.558869 430.76456 526.910727 425.730548 521.912266 418.04813 520.101802 410.500289 518.320535 403.957979 520.671856 398.587522 526.306392 385.137257 540.465101 371.681913 554.688561 358.22784 568.882818 324.206057 604.749345 290.189354 640.645073 256.201851 676.54588 255.631795 677.151486 254.957633 677.652983 254.020659 678.595035L254.020659 357.214441C255.061741 358.018106 255.865405 358.588162 256.604318 359.257246 330.182118 420.754693 403.754843 482.291498 477.264084 543.852425 482.530432 548.28083 487.366384 553.25009 492.866341 557.27222 505.448192 566.466746 525.241437 567.944576 539.871171 554.152783 573.619987 522.412495 610.056569 493.830998 645.283214 463.767864 686.35261 428.67453 727.753374 394.017943 769.02083 359.158216 769.725463 358.588162 770.331069 358.082856 771.367073 357.243643L771.367073 675.907267 771.33787 675.907267Z" p-id="3557" fill="#1296db"></path><path d="M511.573711 1023.604426C442.523096 1023.604426 375.52411 1010.068303 312.44063 983.373084 251.516258 957.591161 196.809353 920.693148 149.835507 873.698506 102.860301 826.702506 65.978615 771.971384 40.20946 711.025487 13.530133 647.915443 0 580.886798 0 511.800171 0 442.71899 13.530133 375.690345 40.20946 312.580301 65.978615 251.627599 102.860301 196.897837 149.835507 149.901836 196.809353 102.907196 251.516258 66.007822 312.44063 40.227259 375.52411 13.537483 442.523096 0 511.577793 0 580.628408 0 647.627394 13.537483 710.710872 40.227259 771.629803 66.007822 826.336707 102.907196 873.310555 149.901836 920.291202 196.897837 957.17289 251.627599 982.942045 312.580301 1009.621371 375.690345 1023.151504 442.71899 1023.151504 511.800171 1023.151504 580.881352 1009.621371 647.909997 982.942045 711.025487 957.17289 771.971384 920.291202 826.702506 873.310555 873.698506 826.336707 920.693148 771.629803 957.591161 710.710872 983.373084 647.627394 1010.068303 580.628408 1023.604426 511.573711 1023.604426ZM511.465779 44.44287C253.948372 44.44287 44.44287 254.042475 44.44287 511.672518 44.44287 769.308004 253.948372 978.906249 511.465779 978.906249 768.987266 978.906249 978.49277 769.308004 978.49277 511.672518 978.49277 254.042475 768.987266 44.44287 511.465779 44.44287Z" p-id="3558" fill="#1296db"></path></svg>