<?xml version="1.0" standalone="no"?><!DOCTYPE svg PUBLIC "-//W3C//DTD SVG 1.1//EN" "http://www.w3.org/Graphics/SVG/1.1/DTD/svg11.dtd"><svg t="1552035670269" class="icon" style="" viewBox="0 0 1024 1024" version="1.1" xmlns="http://www.w3.org/2000/svg" p-id="7813" xmlns:xlink="http://www.w3.org/1999/xlink" width="33" height="33"><defs><style type="text/css"></style></defs><path d="M951.5 793.6s-199.5 89-445.1 89-424.6-83.9-424.6-83.9-51.2-20.5-61.4 20.5c-10.2 40.9 15.3 51.2 15.3 51.2s138.1 93.1 470.7 93.1 480.9-93.1 480.9-93.1 35.8-14.3 10.2-61.4c-15.3-25.6-46-15.4-46-15.4z m66.5-588.3S1023.1 59.5 872.2 59.5c-168.8 0-248.1 248.1-360.7 248.1S319.6 59.5 150.8 59.5C0 59.4 5.1 205.3 5.1 205.3L0 676s10.2 30.7 46 30.7S86.9 676 86.9 676l5.1-470.7s0-61.4 56.3-61.4 102.3 71.6 194.4 163.7c92.1 92.1 168.8 87 168.8 87s76.7 5.1 168.8-87c92.1-92.1 138.1-163.7 194.4-163.7 56.3 0 56.3 61.4 56.3 61.4L936.1 676s5.1 30.7 40.9 30.7 46-30.7 46-30.7l-5-470.7z m0 0" p-id="7814" fill="#ff8a00"></path></svg>