<?xml version="1.0" standalone="no"?><!DOCTYPE svg PUBLIC "-//W3C//DTD SVG 1.1//EN" "http://www.w3.org/Graphics/SVG/1.1/DTD/svg11.dtd"><svg t="1552007424095" class="icon" style="" viewBox="0 0 1024 1024" version="1.1" xmlns="http://www.w3.org/2000/svg" p-id="2687" xmlns:xlink="http://www.w3.org/1999/xlink" width="54" height="54"><defs><style type="text/css"></style></defs><path d="M512 646.144c-24.576 0-44.544 19.968-44.544 44.544 0 24.576 19.968 44.544 44.544 44.544 24.576 0 44.544-19.968 44.544-44.544 0-24.576-19.968-44.544-44.544-44.544zM377.856 288.256h268.288v312.832H377.856V288.256zM512 65.024c-246.784 0-446.976 200.192-446.976 446.976 0 246.784 200.192 446.976 446.976 446.976 246.784 0 446.976-200.192 446.976-446.976 0-246.784-200.192-446.976-446.976-446.976z m178.688 670.72c0 24.576-19.968 44.544-44.544 44.544H377.856c-24.576 0-44.544-19.968-44.544-44.544V288.256c0-24.576 19.968-44.544 44.544-44.544h268.288c24.576 0 44.544 19.968 44.544 44.544v447.488z" p-id="2688" fill="#1296db"></path></svg>