<?xml version="1.0" standalone="no"?><!DOCTYPE svg PUBLIC "-//W3C//DTD SVG 1.1//EN" "http://www.w3.org/Graphics/SVG/1.1/DTD/svg11.dtd"><svg t="1552034518045" class="icon" style="" viewBox="0 0 1024 1024" version="1.1" xmlns="http://www.w3.org/2000/svg" p-id="6560" data-spm-anchor-id="a313x.7781069.0.i14" xmlns:xlink="http://www.w3.org/1999/xlink" width="28" height="28"><defs><style type="text/css"></style></defs><path d="M512 0a512 512 0 1 0 512 512A512 512 0 0 0 512 0z m271.872 665.6c-12.8 11.776-34.816 0-55.808-30.208a318.976 318.976 0 0 1-34.816 68.096c29.696 10.752 51.2 27.136 51.2 46.08 0 32.256-57.344 58.368-128 58.368a204.8 204.8 0 0 1-102.4-23.552 204.8 204.8 0 0 1-102.4 23.552c-70.656 0-128-26.112-128-58.368 0-18.432 18.944-35.328 51.2-46.08a310.272 310.272 0 0 1-34.816-68.096c-20.992 29.184-43.008 41.984-55.808 30.208s-10.752-74.24 15.36-129.024a262.656 262.656 0 0 1 18.944-33.792C278.016 343.552 382.976 215.552 512 215.552c129.024 0 233.984 128 237.568 287.744a256 256 0 0 1 18.944 33.792c26.112 54.784 32.768 112.64 15.36 128.512z" fill="#ffffff" p-id="6561"></path></svg>