<?xml version="1.0" standalone="no"?><!DOCTYPE svg PUBLIC "-//W3C//DTD SVG 1.1//EN" "http://www.w3.org/Graphics/SVG/1.1/DTD/svg11.dtd"><svg t="1552034545333" class="icon" style="" viewBox="0 0 1024 1024" version="1.1" xmlns="http://www.w3.org/2000/svg" p-id="7522" xmlns:xlink="http://www.w3.org/1999/xlink" width="28" height="28"><defs><style type="text/css"></style></defs><path d="M10.24 512a501.76 501.76 0 1 1 501.76 501.76A501.76 501.76 0 0 1 10.24 512z m285.184 322.56a3.584 3.584 0 0 0 2.2528 0.6144c25.4976 0 210.0224-112.64 210.0224-112.64S706.56 848.6912 720.1792 834.56c10.24-10.24-17.2032-137.6256-32.1536-202.0352 0-2.048-77.6192 8.6016-163.1232 9.1136-75.9808 0-160.6656-4.608-160.6656-4.608l197.7344-147.1488s-61.44-11.264-108.1344-15.4624c-66.6624-6.0416-125.1328-5.8368-117.8624-7.68a1028.8128 1028.8128 0 0 1 171.8272-7.68 1159.3728 1159.3728 0 0 1 143.36 15.4624L453.8368 615.424s43.2128 6.656 79.0528 7.9872c68.3008 2.56 151.6544 0.7168 151.4496 0q-2.7648-12.5952-4.8128-25.2928c-1.3312-8.4992 178.176-149.2992 171.8272-167.5264S614.4 396.1856 614.4 396.1856s-85.504-215.04-106.1888-215.04-106.1888 215.04-106.1888 215.04S171.52 412.3648 163.84 430.6944s172.1344 167.5264 172.1344 167.5264-52.9408 226.5088-40.96 236.4416z m0 0" p-id="7523" fill="#ffffff"></path></svg>