<?xml version="1.0" standalone="no"?><!DOCTYPE svg PUBLIC "-//W3C//DTD SVG 1.1//EN" "http://www.w3.org/Graphics/SVG/1.1/DTD/svg11.dtd"><svg t="1551966546522" class="icon" style="" viewBox="0 0 1024 1024" version="1.1" xmlns="http://www.w3.org/2000/svg" p-id="3662" xmlns:xlink="http://www.w3.org/1999/xlink" width="37" height="37"><defs><style type="text/css"></style></defs><path d="M 512 1174.81 a 662.803 662.803 0 1 1 662.803 -662.803 a 662.444 662.444 0 0 1 -662.803 662.803 Z m 36.7553 -777.891 c -15.6665 1.80765 -65.0754 33.7427 -37.3579 -31.935 a 83.935 83.935 0 0 0 -30.1273 -91.5876 a 279.282 279.282 0 0 0 -145.817 12.6535 a 685.159 685.159 0 0 0 -294.645 320.556 c -57.8446 184.981 144.611 297.66 295.25 320.556 s 376.593 -14.4611 479.027 -139.791 c 75.9213 -91.5876 90.3821 -216.317 -53.0243 -252.467 c -47.6013 -11.4484 -19.8843 -31.3325 -7.83314 -65.0754 a 79.9583 79.9583 0 0 0 -62.6653 -93.3951 a 60.2549 60.2549 0 0 0 -9.64076 -1.2051 a 359.3 359.3 0 0 0 -133.164 21.6918 Z m 201.852 -112.074 a 67.0637 67.0637 0 0 0 -54.832 15.6665 c -7.23058 13.8587 -12.051 38.5632 27.717 47.6013 a 218.725 218.725 0 0 1 39.1657 5.42292 a 52.9038 52.9038 0 0 1 35.5503 59.6525 c -6.02549 55.4346 25.3072 64.4726 47.6013 49.4092 a 47.4207 47.4207 0 0 0 18.0765 -38.5632 a 118.642 118.642 0 0 0 -95.8052 -137.382 a 91.9489 91.9489 0 0 0 -18.0765 -1.80765 h 0.602549 Z m 213.906 2.41019 a 242.345 242.345 0 0 0 -197.034 -132.561 c -32.5375 -3.6153 -101.228 -11.4484 -109.061 33.1404 a 33.6825 33.6825 0 0 0 24.7044 40.3708 c 1.2051 0 2.41019 0.602549 3.6153 0.602549 a 283.559 283.559 0 0 0 45.1911 -1.80765 a 186.79 186.79 0 0 1 187.994 185.584 a 180.765 180.765 0 0 1 -1.80765 25.9095 c -1.80765 10.2433 -3.01273 20.4867 -4.21785 30.7299 a 36.8159 36.8159 0 0 0 28.3199 42.781 a 36.153 36.153 0 0 0 38.5632 -18.679 a 284.101 284.101 0 0 0 -16.8711 -206.07 h 0.602549 Z m -521.204 583.267 c -157.265 19.8843 -295.25 -48.2038 -307.9 -151.843 s 103.036 -203.661 260.301 -223.546 s 295.25 48.2038 308.508 151.843 s -104.241 204.265 -261.506 223.546 h 0.602549 Z m -42.781 -295.853 a 149.312 149.312 0 0 0 -154.252 141.598 a 134.368 134.368 0 0 0 142.201 126.535 a 81.6453 81.6453 0 0 0 12.051 -1.2051 a 158.591 158.591 0 0 0 149.435 -148.225 a 128.885 128.885 0 0 0 -136.778 -120.51 l -12.6535 1.80765 Z m 28.9226 122.317 a 19.2816 19.2816 0 0 1 -22.2943 -15.6665 v -2.41019 a 21.9327 21.9327 0 0 1 22.2943 -20.4867 a 18.4981 18.4981 0 0 1 21.0893 15.6665 a 2.22943 2.22943 0 0 1 0.602549 1.80765 a 23.2583 23.2583 0 0 1 -21.6918 21.0893 Z M 349.311 777.121 a 47.541 47.541 0 0 1 -53.6269 -40.9732 a 7.65236 7.65236 0 0 1 -0.602548 -3.6153 a 53.1449 53.1449 0 0 1 54.2292 -50.0115 a 45.0103 45.0103 0 0 1 52.4217 37.3579 a 13.2561 13.2561 0 0 1 0.602549 4.82038 a 56.4588 56.4588 0 0 1 -53.0243 52.4217 Z" fill="#d81e06" p-id="3663"></path></svg>