<?xml version="1.0" standalone="no"?><!DOCTYPE svg PUBLIC "-//W3C//DTD SVG 1.1//EN" "http://www.w3.org/Graphics/SVG/1.1/DTD/svg11.dtd"><svg t="1552099183677" class="icon" style="" viewBox="0 0 1024 1024" version="1.1" xmlns="http://www.w3.org/2000/svg" p-id="2173" xmlns:xlink="http://www.w3.org/1999/xlink" width="16" height="16"><defs><style type="text/css">html, * { user-select: text !important; }
html, * {  }
</style></defs><path d="M512 27.2C244.672 27.2 27.2 244.672 27.2 512S244.672 996.8 512 996.8 996.8 779.328 996.8 512 779.328 27.2 512 27.2z m0 928c-244.352 0-443.2-198.848-443.2-443.2S267.648 68.8 512 68.8 955.2 267.648 955.2 512 756.352 955.2 512 955.2z" p-id="2174" fill="#ff8a00"></path><path d="M512 512m-308.608 0a308.608 308.608 0 1 0 617.216 0 308.608 308.608 0 1 0-617.216 0Z" p-id="2175" fill="#ff8a00"></path></svg>