<?xml version="1.0" standalone="no"?><!DOCTYPE svg PUBLIC "-//W3C//DTD SVG 1.1//EN" "http://www.w3.org/Graphics/SVG/1.1/DTD/svg11.dtd"><svg t="1551694383492" class="icon" style="" viewBox="0 0 1129 1024" version="1.1" xmlns="http://www.w3.org/2000/svg" p-id="2644" xmlns:xlink="http://www.w3.org/1999/xlink" width="30.87109375" height="28"><defs><style type="text/css"></style></defs><path d="M645.88402375 215.42366828h-148.69712393c-10.27847726 0-19.0138201 3.62609427-26.3096299 10.8782828-7.25218854 7.25218854-10.89464097 15.97662499-10.89464096 26.17331079V289.52685547h223.0620437v-37.0515936c0-10.19668579-3.63699994-18.92112295-10.88373459-26.17331079-7.3067162-7.25218854-16.04205832-10.87828209-26.29872494-10.8782828h0.02181062z m223.07295009 148.31542969h-37.17155456v444.94628906h37.17155456c10.26211912 0 19.03017825-3.62609427 26.28236607-10.87282963 7.29035804-7.25218854 10.91099912-15.97662499 10.91099912-26.17331078v-370.84310258c0-10.19668579-3.62064108-18.92112295-10.91645159-26.17331079-7.24673534-7.25218854-16.01479449-10.88373529-26.2769136-10.88373528z m-111.54738072 0H385.62861415v444.94628906h371.78097897v-444.94628906z m-446.12408811 444.94628906v-444.94628906H274.10849798c-10.25666663 0-18.98110309 3.62609427-26.28236679 10.8782828-7.2630935 7.25218854-10.90009343 15.97662499-10.90009346 26.17331079v370.84310187c0 10.19668579 3.63699994 18.92112295 10.89464097 26.1733115 7.3067162 7.25218854 16.03115335 10.87828209 26.28781928 10.8782821h37.18791272zM497.14327785 141.21142578h148.71893528c30.76454599 0 57.07417661 10.87828209 78.84164647 32.62939453 21.78928121 21.75656491 32.68392217 47.92987569 32.68392218 78.63444156V289.52685547h111.54738072c30.76454599 0 57.06327093 10.87828209 78.84164718 32.62939453 21.78928121 21.75656491 32.68392217 47.92987569 32.68392218 78.63444156v370.84310187c0 30.71001833-10.89464097 56.88332984-32.68392218 78.63444155-21.77837626 21.75656491-48.0771012 32.52033924-78.84164719 32.52033924H274.08123415c-30.78635733 0-57.07417661-10.76377432-78.85255285-32.52033924-21.78928121-21.75656491-32.68392217-47.92987569-32.68392219-78.62898836v-370.84310258c0-30.71001833 10.89464097-56.88332984 32.68392219-78.63989404 21.77837626-21.75656491 48.06619553-32.62939453 78.85255286-32.62939453H385.61770847v-37.0515936c0-30.70456586 10.89464097-56.87787665 32.68392219-78.62898908C440.09091258 152.08425539 466.35692051 141.21142578 497.14327785 141.21142578z" p-id="2645" fill="#2c2c2c"></path></svg>