<?xml version="1.0" standalone="no"?><!DOCTYPE svg PUBLIC "-//W3C//DTD SVG 1.1//EN" "http://www.w3.org/Graphics/SVG/1.1/DTD/svg11.dtd"><svg t="1551932415204" class="icon" style="" viewBox="0 0 1024 1024" version="1.1" xmlns="http://www.w3.org/2000/svg" p-id="2411" xmlns:xlink="http://www.w3.org/1999/xlink" width="20" height="20"><defs><style type="text/css"></style></defs><path d="M1008.64 936.96L819.2 747.52c61.44-76.8 102.4-179.2 102.4-286.72 0-256-204.8-460.8-460.8-460.8S0 204.8 0 460.8s204.8 460.8 460.8 460.8c107.52 0 209.92-35.84 286.72-102.4l189.44 189.44c10.24 10.24 25.6 15.36 35.84 15.36s25.6-5.12 35.84-15.36c20.48-20.48 20.48-51.2 0-71.68zM460.8 819.2c-199.68 0-358.4-158.72-358.4-358.4s158.72-358.4 358.4-358.4 358.4 158.72 358.4 358.4-158.72 358.4-358.4 358.4z" p-id="2412" fill="#ff9d00"></path></svg>