<?xml version="1.0" standalone="no"?><!DOCTYPE svg PUBLIC "-//W3C//DTD SVG 1.1//EN" "http://www.w3.org/Graphics/SVG/1.1/DTD/svg11.dtd"><svg t="1552034432635" class="icon" style="" viewBox="0 0 1024 1024" version="1.1" xmlns="http://www.w3.org/2000/svg" p-id="5735" xmlns:xlink="http://www.w3.org/1999/xlink" width="28" height="28"><defs><style type="text/css"></style></defs><path d="M512 42.454395A469.545605 469.545605 0 1 1 42.454395 512 469.970149 469.970149 0 0 1 512 42.454395m0-42.454395a512 512 0 1 0 512 512A512 512 0 0 0 512 0z" p-id="5736" fill="#ffffff"></path><path d="M462.328358 800.689884h-27.595356C272.557214 786.679934 180.431177 721.72471 169.817579 613.466003A219.064677 219.064677 0 0 1 219.913765 466.998342c2.971808-4.669983 84.908789-117.598673 179.582089-151.137645a169.817579 169.817579 0 0 1 54.341625-10.613599c44.577114 0 70.474295 29.293532 70.474295 80.66335v2.971807c0 4.245439 0 8.490879-2.547263 11.887231v2.547264h2.971807a254.726368 254.726368 0 0 1 87.03151-21.227198A71.323383 71.323383 0 0 1 679.270315 491.197347 120.570481 120.570481 0 0 1 756.961857 551.907131a117.174129 117.174129 0 0 1-4.669983 104.013267c-42.454395 95.946932-179.157546 146.043118-289.963516 146.043118zM453.837479 339.635158a138.401327 138.401327 0 0 0-42.454394 8.915422c-84.908789 30.14262-163.44942 138.401327-163.873964 139.674959a192.318408 192.318408 0 0 0-45.001658 121.844113c12.311774 115.475954 135.429519 149.439469 236.470978 157.505804h25.048093c98.069652 0 222.885572-42.454395 260.669983-127.363184a84.908789 84.908789 0 0 0 5.094528-75.568823 89.154229 89.154229 0 0 0-56.039801-42.454394 33.114428 33.114428 0 0 1-28.019901-20.37811 27.170813 27.170813 0 0 1 4.669984-24.199005 45.850746 45.850746 0 0 0-4.669984-53.067993 46.27529 46.27529 0 0 0-33.963515-11.038143 193.167496 193.167496 0 0 0-64.53068 14.009951l-14.009951 4.245439a73.870647 73.870647 0 0 1-21.651741 4.245439 23.349917 23.349917 0 0 1-19.529022-8.490878 42.454395 42.454395 0 0 1-2.122719-35.661692v-9.339967c0-42.454395-20.802653-46.27529-38.208955-46.27529z m0 0" p-id="5737" fill="#ffffff"></path><path d="M433.883914 730.640133c-84.908789 0-152.411277-47.124378-152.411277-109.532339s69.625207-115.475954 162.175788-119.721393 163.873964 38.633499 163.873963 101.890548-73.021559 123.117745-162.175788 127.363184z m22.925373-196.988392h-11.462687c-72.597015 3.396352-131.608624 42.454395-131.608623 87.031509s53.067993 76.842454 120.570481 76.842455h9.76451c70.049751-3.396352 131.608624-47.548922 131.608624-94.6733 0-40.331675-50.096186-69.625207-118.872305-69.625208z m0 0" p-id="5738" fill="#ffffff"></path><path d="M416.902156 675.024876a55.615257 55.615257 0 0 1-61.983416-49.671642 68.776119 68.776119 0 0 1 65.379767-61.983416h8.490879c37.784411 0 64.955224 21.651741 64.955224 51.794361a69.200663 69.200663 0 0 1-69.200663 59.436153z m11.88723-80.66335H424.543947a36.935323 36.935323 0 0 0-36.51078 29.718076c0 9.339967 13.160862 16.981758 30.142621 16.981758H424.543947c22.500829-2.12272 39.482587-16.13267 39.482587-27.170813s-15.708126-19.529022-35.237148-19.529021z m400.344942-111.655058a16.13267 16.13267 0 0 1-12.736318-6.36816 16.557214 16.557214 0 0 1-2.971808-14.00995c16.981758-73.446103 9.764511-127.363184-22.076285-163.024875-55.615257-61.134328-169.817579-42.454395-169.817579-42.454395a15.708126 15.708126 0 0 1-14.859038-5.943615 16.557214 16.557214 0 0 1-2.547264-16.13267 16.13267 16.13267 0 0 1 12.311775-10.189055c5.519071 0 132.033167-20.802653 199.111111 53.067993 39.482587 42.454395 49.247098 107.834163 29.718076 192.742952a16.13267 16.13267 0 0 1-15.708126 12.736319z m0 0" p-id="5739" fill="#ffffff"></path><path d="M746.348259 455.535655a15.708126 15.708126 0 0 1-12.311775-5.943615 16.557214 16.557214 0 0 1-3.396351-13.160863 80.66335 80.66335 0 0 0-13.585407-72.597014 106.985075 106.985075 0 0 0-82.361525-18.25539 15.708126 15.708126 0 0 1-11.887231-2.547264 16.557214 16.557214 0 0 1 6.368159-29.293532 136.703151 136.703151 0 0 1 110.381427 27.170812 111.230514 111.230514 0 0 1 22.500829 101.466004 16.13267 16.13267 0 0 1-15.708126 13.585406z m0 0" p-id="5740" fill="#ffffff"></path></svg>